<svg width="200" height="200" viewBox="0 0 200 200" fill="none" xmlns="http://www.w3.org/2000/svg">
<g clip-path="url(#clip0_90_22)">
<rect width="200" height="200" fill="white"/>
<path d="M132.601 56.7208C140.77 39.2019 161.595 31.6224 179.114 39.7916V39.7916L123.117 159.877C119.032 168.637 108.62 172.427 99.8605 168.342V168.342C91.101 164.257 87.3113 153.845 91.3959 145.086L132.601 56.7208Z" fill="#DC3545"/>
<path d="M17 100C72.2285 100 117 144.772 117 200V200V200C61.7715 200 17 155.228 17 100V100V100Z" fill="#343A40"/>
<path d="M49.7916 71.5124C41.6224 53.9935 49.2019 33.1692 66.7208 25V25L122.718 145.086C126.802 153.845 123.013 164.257 114.253 168.342V168.342C105.494 172.427 95.0815 168.637 90.9969 159.877L49.7916 71.5124Z" fill="#DC3545"/>
<path d="M117 0C117 55.2285 72.2285 100 17 100V100V100C17 44.7715 61.7715 0 117 0V0V0Z" fill="#343A40"/>
</g>
<defs>
<clipPath id="clip0_90_22">
<rect width="200" height="200" fill="white"/>
</clipPath>
</defs>
</svg>
