<svg width="335" height="342" viewBox="0 0 335 342" fill="none" xmlns="http://www.w3.org/2000/svg">
<g clip-path="url(#clip0_11_40)">
<path d="M93 12H208V47H243V212H93V12Z" fill="black"/>
<path d="M213 12L243 42H213V12Z" fill="black"/>
<rect x="130" y="93.5" width="37.5" height="37.5" fill="white"/>
<rect x="130" y="56" width="37.5" height="37.5" fill="white"/>
<path d="M167.5 56V56C188.211 56 205 72.7893 205 93.5V93.5H167.5V56Z" fill="white"/>
<path d="M130 131H167.5V168.5V168.5C146.789 168.5 130 151.711 130 131V131Z" fill="white"/>
<rect x="167.5" y="131" width="37.5" height="37.5" fill="white"/>
<path d="M55.8706 331.113C48.2024 331.113 41.4 329.299 35.4634 325.671C29.6092 321.961 24.9918 316.849 21.6112 310.335C18.2306 303.739 16.5403 296.153 16.5403 287.578C16.5403 280.487 17.6947 274.303 20.0034 269.026C22.3121 263.749 25.4041 259.337 29.2794 255.792C33.2371 252.247 37.6484 249.608 42.5131 247.876C47.4603 246.145 52.5725 245.279 57.8495 245.279C63.044 245.279 67.7851 245.815 72.0727 246.887C76.3602 247.959 80.7715 249.567 85.3064 251.711C84.7293 254.596 84.3582 257.688 84.1933 260.987C84.0284 264.202 83.946 267.5 83.946 270.881C82.8741 271.293 81.8434 271.582 80.8539 271.747C79.8645 271.912 78.7102 271.994 77.3909 271.994C77.226 266.14 76.3602 261.646 74.7936 258.513C73.227 255.38 71.0832 253.236 68.3623 252.082C65.6413 250.927 62.4669 250.35 58.8389 250.35C53.6443 250.35 49.1919 251.298 45.4815 253.195C41.7711 255.091 38.7203 257.647 36.3291 260.863C34.0205 263.996 32.2889 267.583 31.1346 271.623C30.0627 275.663 29.5267 279.868 29.5267 284.238C29.5267 291.577 30.7635 298.255 33.2371 304.275C35.7932 310.211 39.4211 314.911 44.121 318.374C48.8208 321.837 54.4689 323.569 61.0651 323.569C65.0229 323.569 69.0631 322.909 73.1858 321.59C77.3085 320.271 81.1013 318.498 84.5644 316.272C85.0591 316.684 85.5126 317.302 85.9248 318.127C86.4196 318.869 86.7081 319.528 86.7906 320.106C81.9258 323.898 77.1023 326.702 72.32 328.516C67.6202 330.247 62.137 331.113 55.8706 331.113ZM126.655 330.742C123.687 322.744 120.677 314.87 117.627 307.119C114.658 299.286 111.772 291.824 108.969 284.733C106.166 277.642 103.527 271.252 101.053 265.563C99.3219 261.523 97.9614 258.513 96.972 256.534C95.9825 254.555 95.0343 253.236 94.1273 252.576C93.2203 251.917 92.0248 251.504 90.5406 251.34C90.2932 250.35 90.1283 249.402 90.0459 248.495C89.9634 247.505 89.9222 246.681 89.9222 246.021C90.7467 246.104 91.7362 246.186 92.8905 246.269C94.0449 246.269 95.2817 246.31 96.6009 246.392C98.0026 246.392 99.4043 246.392 100.806 246.392C102.208 246.392 103.568 246.392 104.887 246.392C107.526 246.392 110.082 246.351 112.556 246.269C115.112 246.186 117.544 246.104 119.853 246.021C119.853 246.763 119.77 247.629 119.605 248.619C119.523 249.526 119.399 250.433 119.234 251.34C116.513 251.504 114.493 251.958 113.174 252.7C111.855 253.36 111.278 254.638 111.443 256.534C111.69 258.348 112.638 261.151 114.287 264.944C116.513 270.221 118.698 275.581 120.842 281.023C122.986 286.465 125.089 291.989 127.15 297.596C129.294 303.12 131.437 308.851 133.581 314.787H131.726C134.117 309.428 136.385 304.11 138.528 298.833C140.755 293.556 142.898 288.237 144.96 282.878C147.104 277.436 149.165 271.953 151.144 266.428C152.71 261.811 153.164 258.266 152.504 255.792C151.927 253.236 149.783 251.752 146.073 251.34C145.826 250.433 145.661 249.484 145.578 248.495C145.496 247.505 145.455 246.681 145.455 246.021C146.691 246.104 147.846 246.186 148.918 246.269C150.072 246.269 151.226 246.31 152.381 246.392C153.535 246.392 154.731 246.392 155.967 246.392C157.864 246.392 159.966 246.351 162.275 246.269C164.666 246.186 166.769 246.104 168.583 246.021C168.583 246.928 168.541 247.835 168.459 248.742C168.377 249.567 168.212 250.433 167.964 251.34C165.408 251.917 163.388 253.483 161.904 256.039C160.42 258.513 158.894 261.811 157.328 265.934C153.205 276.57 148.959 287.248 144.589 297.967C140.301 308.686 135.931 319.446 131.479 330.247C130.654 330.412 129.871 330.536 129.129 330.618C128.469 330.701 127.645 330.742 126.655 330.742ZM226.285 330.742C224.801 328.351 222.74 325.3 220.101 321.59C217.463 317.797 214.453 313.798 211.073 309.593C207.774 305.388 204.394 301.389 200.931 297.596C197.468 293.803 194.252 290.629 191.284 288.072L216.514 261.605C219.565 258.472 221.091 256.039 221.091 254.308C221.173 252.494 219.813 251.504 217.009 251.34C216.762 250.515 216.597 249.649 216.514 248.742C216.432 247.835 216.391 246.928 216.391 246.021C217.793 246.104 219.648 246.186 221.956 246.269C224.265 246.351 226.656 246.392 229.13 246.392C230.779 246.392 232.346 246.392 233.83 246.392C235.396 246.31 236.839 246.269 238.158 246.269C239.56 246.186 240.797 246.104 241.869 246.021C241.869 246.846 241.828 247.753 241.745 248.742C241.663 249.732 241.457 250.597 241.127 251.34C239.313 251.422 237.54 251.793 235.809 252.453C234.16 253.03 232.346 254.06 230.367 255.545C228.47 257.029 226.203 259.214 223.564 262.1L201.92 285.104V282.136C205.383 285.187 209.3 289.392 213.67 294.751C218.122 300.028 222.863 305.924 227.893 312.437C229.954 315.076 231.768 317.261 233.335 318.992C234.902 320.724 236.674 322.043 238.653 322.95C240.715 323.857 243.353 324.434 246.569 324.682C246.569 325.341 246.528 326.166 246.445 327.155C246.363 328.145 246.198 329.093 245.95 330C244.384 330 242.776 330 241.127 330C239.478 330 237.787 330.041 236.056 330.124C234.324 330.206 232.634 330.289 230.985 330.371C229.336 330.453 227.769 330.577 226.285 330.742ZM172.361 330.371C172.361 329.217 172.402 328.227 172.484 327.403C172.567 326.496 172.732 325.712 172.979 325.053C175.205 324.888 176.937 324.517 178.174 323.94C179.41 323.28 180.276 322.208 180.771 320.724C181.266 319.157 181.513 317.014 181.513 314.293V262.1C181.513 259.296 181.266 257.152 180.771 255.668C180.276 254.184 179.41 253.112 178.174 252.453C176.937 251.793 175.205 251.422 172.979 251.34C172.732 250.68 172.567 249.897 172.484 248.99C172.402 248.083 172.361 247.093 172.361 246.021C173.927 246.104 175.494 246.186 177.061 246.269C178.71 246.269 180.4 246.31 182.131 246.392C183.863 246.392 185.594 246.392 187.326 246.392C189.14 246.392 190.872 246.392 192.521 246.392C194.17 246.31 195.777 246.269 197.344 246.269C198.993 246.186 200.642 246.104 202.291 246.021C202.291 247.093 202.25 248.083 202.168 248.99C202.085 249.897 201.92 250.68 201.673 251.34C199.529 251.422 197.798 251.793 196.478 252.453C195.242 253.112 194.376 254.184 193.881 255.668C193.386 257.152 193.139 259.296 193.139 262.1V314.293C193.139 317.014 193.386 319.157 193.881 320.724C194.376 322.208 195.242 323.28 196.478 323.94C197.798 324.517 199.529 324.888 201.673 325.053C201.92 325.712 202.085 326.496 202.168 327.403C202.25 328.227 202.291 329.217 202.291 330.371C199.818 330.206 197.303 330.082 194.747 330C192.191 330 189.717 330 187.326 330C184.935 330 182.379 330 179.658 330C176.937 330.082 174.505 330.206 172.361 330.371ZM309.826 296.73C309.826 303.821 309.373 309.428 308.466 313.551C307.559 317.673 305.662 321.177 302.776 324.063C300.468 326.372 297.582 328.145 294.119 329.382C290.738 330.536 286.945 331.113 282.74 331.113C275.072 331.113 269.012 330 264.559 327.774C260.189 325.465 257.056 322.084 255.16 317.632C253.346 313.18 252.439 307.779 252.439 301.43V262.1C252.439 259.131 252.233 256.946 251.82 255.545C251.49 254.06 250.79 253.071 249.718 252.576C248.728 251.999 247.203 251.587 245.142 251.34C244.894 250.433 244.729 249.526 244.647 248.619C244.564 247.712 244.523 246.846 244.523 246.021C246.172 246.104 248.316 246.186 250.955 246.269C253.675 246.351 256.314 246.392 258.87 246.392C260.107 246.392 261.385 246.392 262.704 246.392C264.023 246.392 265.301 246.392 266.538 246.392C267.775 246.31 268.971 246.269 270.125 246.269C271.279 246.186 272.31 246.104 273.217 246.021C273.217 246.846 273.176 247.712 273.093 248.619C273.011 249.526 272.846 250.433 272.599 251.34C270.207 251.504 268.393 251.875 267.157 252.453C265.92 252.947 265.095 253.937 264.683 255.421C264.271 256.823 264.065 259.049 264.065 262.1V299.698C264.065 304.316 264.683 308.521 265.92 312.314C267.157 316.107 269.3 319.116 272.351 321.342C275.402 323.486 279.648 324.558 285.09 324.558C287.152 324.558 289.419 324.228 291.893 323.569C294.366 322.827 296.469 321.59 298.2 319.858C299.52 318.539 300.55 317.014 301.292 315.282C302.034 313.551 302.57 311.283 302.9 308.48C303.312 305.676 303.519 302.09 303.519 297.72V267.047C303.519 263.089 303.312 260.038 302.9 257.895C302.488 255.668 301.663 254.06 300.427 253.071C299.272 252.082 297.458 251.504 294.985 251.34C294.737 250.103 294.572 249.113 294.49 248.371C294.407 247.629 294.366 246.846 294.366 246.021C295.356 246.104 296.51 246.186 297.829 246.269C299.149 246.269 300.509 246.31 301.911 246.392C303.395 246.392 304.755 246.392 305.992 246.392C307.889 246.392 309.909 246.351 312.052 246.269C314.279 246.186 316.175 246.104 317.742 246.021C317.742 246.598 317.701 247.299 317.618 248.124C317.536 248.866 317.371 249.938 317.123 251.34C315.227 251.504 313.743 252.082 312.671 253.071C311.599 253.978 310.857 255.545 310.445 257.771C310.032 259.915 309.826 263.007 309.826 267.047V296.73Z" fill="black"/>
</g>
<defs>
<clipPath id="clip0_11_40">
<rect width="335" height="342" fill="white"/>
</clipPath>
</defs>
</svg>
