<svg width="497" height="224" viewBox="0 0 497 224" fill="none" xmlns="http://www.w3.org/2000/svg">
<path d="M12 12H127V47H162V212H12V12Z" fill="black"/>
<path d="M132 12L162 42H132V12Z" fill="black"/>
<rect x="49" y="93.5" width="37.5" height="37.5" fill="white"/>
<rect x="49" y="56" width="37.5" height="37.5" fill="white"/>
<path d="M86.5 56V56C107.211 56 124 72.7893 124 93.5V93.5H86.5V56Z" fill="white"/>
<path d="M49 131H86.5V168.5V168.5C65.7893 168.5 49 151.711 49 131V131Z" fill="white"/>
<rect x="86.5" y="131" width="37.5" height="37.5" fill="white"/>
<path d="M217.871 167.113C210.202 167.113 203.4 165.299 197.463 161.671C191.609 157.961 186.992 152.849 183.611 146.335C180.231 139.739 178.54 132.153 178.54 123.578C178.54 116.487 179.695 110.303 182.003 105.026C184.312 99.7487 187.404 95.3375 191.279 91.792C195.237 88.2465 199.648 85.608 204.513 83.8765C209.46 82.145 214.572 81.2792 219.849 81.2792C225.044 81.2792 229.785 81.8151 234.073 82.887C238.36 83.9589 242.771 85.5668 247.306 87.7106C246.729 90.5964 246.358 93.6884 246.193 96.9866C246.028 100.202 245.946 103.5 245.946 106.881C244.874 107.293 243.843 107.582 242.854 107.747C241.865 107.912 240.71 107.994 239.391 107.994C239.226 102.14 238.36 97.6462 236.794 94.513C235.227 91.3797 233.083 89.2359 230.362 88.0816C227.641 86.9272 224.467 86.3501 220.839 86.3501C215.644 86.3501 211.192 87.2983 207.481 89.1947C203.771 91.0911 200.72 93.6472 198.329 96.8629C196.02 99.9961 194.289 103.583 193.135 107.623C192.063 111.663 191.527 115.868 191.527 120.238C191.527 127.577 192.764 134.255 195.237 140.275C197.793 146.211 201.421 150.911 206.121 154.374C210.821 157.837 216.469 159.569 223.065 159.569C227.023 159.569 231.063 158.909 235.186 157.59C239.308 156.271 243.101 154.498 246.564 152.272C247.059 152.684 247.513 153.302 247.925 154.127C248.42 154.869 248.708 155.528 248.791 156.106C243.926 159.898 239.102 162.702 234.32 164.516C229.62 166.247 224.137 167.113 217.871 167.113ZM288.655 166.742C285.687 158.744 282.677 150.87 279.627 143.119C276.658 135.286 273.772 127.824 270.969 120.733C268.166 113.642 265.527 107.252 263.053 101.563C261.322 97.5225 259.961 94.513 258.972 92.5341C257.983 90.5552 257.034 89.2359 256.127 88.5763C255.22 87.9167 254.025 87.5044 252.541 87.3395C252.293 86.3501 252.128 85.4019 252.046 84.4949C251.963 83.5054 251.922 82.6809 251.922 82.0213C252.747 82.1037 253.736 82.1862 254.891 82.2686C256.045 82.2686 257.282 82.3099 258.601 82.3923C260.003 82.3923 261.404 82.3923 262.806 82.3923C264.208 82.3923 265.568 82.3923 266.887 82.3923C269.526 82.3923 272.082 82.3511 274.556 82.2686C277.112 82.1862 279.544 82.1037 281.853 82.0213C281.853 82.7634 281.77 83.6291 281.605 84.6186C281.523 85.5255 281.399 86.4325 281.234 87.3395C278.513 87.5044 276.493 87.9579 275.174 88.7C273.855 89.3596 273.278 90.6376 273.443 92.5341C273.69 94.348 274.638 97.1515 276.287 100.944C278.513 106.221 280.698 111.581 282.842 117.023C284.986 122.465 287.089 127.989 289.15 133.596C291.294 139.12 293.437 144.851 295.581 150.787H293.726C296.117 145.428 298.385 140.11 300.528 134.833C302.755 129.556 304.898 124.237 306.96 118.878C309.104 113.436 311.165 107.953 313.144 102.428C314.71 97.8111 315.164 94.2656 314.504 91.792C313.927 89.2359 311.783 87.7518 308.073 87.3395C307.826 86.4325 307.661 85.4843 307.578 84.4949C307.496 83.5054 307.455 82.6809 307.455 82.0213C308.691 82.1037 309.846 82.1862 310.918 82.2686C312.072 82.2686 313.226 82.3099 314.381 82.3923C315.535 82.3923 316.731 82.3923 317.967 82.3923C319.864 82.3923 321.966 82.3511 324.275 82.2686C326.666 82.1862 328.769 82.1037 330.583 82.0213C330.583 82.9283 330.541 83.8352 330.459 84.7422C330.377 85.5668 330.212 86.4325 329.964 87.3395C327.408 87.9167 325.388 89.4833 323.904 92.0394C322.42 94.513 320.894 97.8111 319.328 101.934C315.205 112.57 310.959 123.248 306.589 133.967C302.301 144.686 297.931 155.446 293.479 166.247C292.654 166.412 291.871 166.536 291.129 166.618C290.469 166.701 289.645 166.742 288.655 166.742ZM388.285 166.742C386.801 164.351 384.74 161.3 382.101 157.59C379.463 153.797 376.453 149.798 373.073 145.593C369.774 141.388 366.394 137.389 362.931 133.596C359.468 129.803 356.252 126.629 353.284 124.072L378.514 97.605C381.565 94.4717 383.091 92.0394 383.091 90.3078C383.173 88.4939 381.813 87.5044 379.009 87.3395C378.762 86.515 378.597 85.6492 378.514 84.7422C378.432 83.8352 378.391 82.9283 378.391 82.0213C379.793 82.1037 381.648 82.1862 383.956 82.2686C386.265 82.3511 388.656 82.3923 391.13 82.3923C392.779 82.3923 394.346 82.3923 395.83 82.3923C397.396 82.3099 398.839 82.2686 400.158 82.2686C401.56 82.1862 402.797 82.1037 403.869 82.0213C403.869 82.8458 403.828 83.7528 403.745 84.7422C403.663 85.7317 403.457 86.5974 403.127 87.3395C401.313 87.422 399.54 87.793 397.809 88.4526C396.16 89.0298 394.346 90.0605 392.367 91.5446C390.47 93.0288 388.203 95.2138 385.564 98.0997L363.92 121.104V118.136C367.383 121.187 371.3 125.392 375.67 130.751C380.122 136.028 384.863 141.924 389.893 148.437C391.954 151.076 393.768 153.261 395.335 154.992C396.902 156.724 398.674 158.043 400.653 158.95C402.715 159.857 405.353 160.434 408.569 160.682C408.569 161.341 408.528 162.166 408.445 163.155C408.363 164.145 408.198 165.093 407.95 166C406.384 166 404.776 166 403.127 166C401.478 166 399.787 166.041 398.056 166.124C396.324 166.206 394.634 166.289 392.985 166.371C391.336 166.453 389.769 166.577 388.285 166.742ZM334.361 166.371C334.361 165.217 334.402 164.227 334.484 163.403C334.567 162.496 334.732 161.712 334.979 161.053C337.205 160.888 338.937 160.517 340.174 159.94C341.41 159.28 342.276 158.208 342.771 156.724C343.266 155.157 343.513 153.014 343.513 150.293V98.0997C343.513 95.2963 343.266 93.1525 342.771 91.6683C342.276 90.1842 341.41 89.1123 340.174 88.4526C338.937 87.793 337.205 87.422 334.979 87.3395C334.732 86.6799 334.567 85.8966 334.484 84.9896C334.402 84.0826 334.361 83.0932 334.361 82.0213C335.927 82.1037 337.494 82.1862 339.061 82.2686C340.71 82.2686 342.4 82.3099 344.131 82.3923C345.863 82.3923 347.594 82.3923 349.326 82.3923C351.14 82.3923 352.872 82.3923 354.521 82.3923C356.17 82.3099 357.777 82.2686 359.344 82.2686C360.993 82.1862 362.642 82.1037 364.291 82.0213C364.291 83.0932 364.25 84.0826 364.168 84.9896C364.085 85.8966 363.92 86.6799 363.673 87.3395C361.529 87.422 359.798 87.793 358.478 88.4526C357.242 89.1123 356.376 90.1842 355.881 91.6683C355.386 93.1525 355.139 95.2963 355.139 98.0997V150.293C355.139 153.014 355.386 155.157 355.881 156.724C356.376 158.208 357.242 159.28 358.478 159.94C359.798 160.517 361.529 160.888 363.673 161.053C363.92 161.712 364.085 162.496 364.168 163.403C364.25 164.227 364.291 165.217 364.291 166.371C361.818 166.206 359.303 166.082 356.747 166C354.191 166 351.717 166 349.326 166C346.935 166 344.379 166 341.658 166C338.937 166.082 336.505 166.206 334.361 166.371ZM471.826 132.73C471.826 139.821 471.373 145.428 470.466 149.551C469.559 153.673 467.662 157.177 464.776 160.063C462.468 162.372 459.582 164.145 456.119 165.382C452.738 166.536 448.945 167.113 444.74 167.113C437.072 167.113 431.012 166 426.559 163.774C422.189 161.465 419.056 158.084 417.16 153.632C415.346 149.18 414.439 143.779 414.439 137.43V98.0997C414.439 95.1314 414.233 92.9463 413.82 91.5446C413.49 90.0605 412.79 89.071 411.718 88.5763C410.728 87.9991 409.203 87.5869 407.142 87.3395C406.894 86.4325 406.729 85.5255 406.647 84.6186C406.564 83.7116 406.523 82.8458 406.523 82.0213C408.172 82.1037 410.316 82.1862 412.955 82.2686C415.675 82.3511 418.314 82.3923 420.87 82.3923C422.107 82.3923 423.385 82.3923 424.704 82.3923C426.023 82.3923 427.301 82.3923 428.538 82.3923C429.775 82.3099 430.971 82.2686 432.125 82.2686C433.279 82.1862 434.31 82.1037 435.217 82.0213C435.217 82.8458 435.176 83.7116 435.093 84.6186C435.011 85.5255 434.846 86.4325 434.599 87.3395C432.207 87.5044 430.393 87.8755 429.157 88.4526C427.92 88.9474 427.095 89.9368 426.683 91.421C426.271 92.8227 426.065 95.0489 426.065 98.0997V135.698C426.065 140.316 426.683 144.521 427.92 148.314C429.157 152.107 431.3 155.116 434.351 157.342C437.402 159.486 441.648 160.558 447.09 160.558C449.152 160.558 451.419 160.228 453.893 159.569C456.366 158.827 458.469 157.59 460.2 155.858C461.52 154.539 462.55 153.014 463.292 151.282C464.034 149.551 464.57 147.283 464.9 144.48C465.312 141.676 465.519 138.09 465.519 133.72V103.047C465.519 99.0891 465.312 96.0383 464.9 93.8946C464.488 91.6683 463.663 90.0605 462.427 89.071C461.272 88.0816 459.458 87.5044 456.985 87.3395C456.737 86.1027 456.572 85.1133 456.49 84.3712C456.407 83.6291 456.366 82.8458 456.366 82.0213C457.356 82.1037 458.51 82.1862 459.829 82.2686C461.149 82.2686 462.509 82.3099 463.911 82.3923C465.395 82.3923 466.755 82.3923 467.992 82.3923C469.889 82.3923 471.909 82.3511 474.052 82.2686C476.279 82.1862 478.175 82.1037 479.742 82.0213C479.742 82.5984 479.701 83.2993 479.618 84.1238C479.536 84.8659 479.371 85.9378 479.123 87.3395C477.227 87.5044 475.743 88.0816 474.671 89.071C473.599 89.978 472.857 91.5446 472.445 93.7709C472.032 95.9147 471.826 99.0067 471.826 103.047V132.73Z" fill="black"/>
</svg>
