<svg width="600" height="250" viewBox="0 0 600 250" fill="none" xmlns="http://www.w3.org/2000/svg">
<path d="M97.404 31H212.404L200.433 63.8892H235.433L179 218.939H29L97.404 31Z" fill="black"/>
<path d="M217.404 31L237.143 59.1908H207.143L217.404 31Z" fill="black"/>
<rect width="37.5" height="37.5" transform="matrix(1 0 -0.34202 0.939693 106.529 107.585)" fill="white"/>
<rect width="37.5" height="37.5" transform="matrix(1 0 -0.34202 0.939693 119.355 72.3465)" fill="white"/>
<path d="M156.855 72.3465V72.3465C177.566 72.3465 188.613 88.1233 181.529 107.585V107.585H144.029L156.855 72.3465Z" fill="white"/>
<path d="M93.7036 142.823H131.204L118.378 178.062V178.062C97.6672 178.062 86.6201 162.285 93.7036 142.823V142.823Z" fill="white"/>
<rect width="37.5" height="37.5" transform="matrix(1 0 -0.34202 0.939693 131.204 142.823)" fill="white"/>
<path d="M266.64 179.653C258.972 179.653 252.79 177.949 248.094 174.54C243.509 171.053 240.64 166.249 239.487 160.128C238.362 153.93 239.267 146.802 242.199 138.744C244.625 132.08 247.894 126.269 252.008 121.31C256.121 116.352 260.722 112.206 265.81 108.875C270.98 105.543 276.294 103.064 281.751 101.437C287.29 99.8094 292.699 98.9959 297.976 98.9959C303.17 98.9959 307.728 99.4995 311.649 100.507C315.57 101.514 319.431 103.025 323.233 105.039C321.669 107.751 320.24 110.657 318.947 113.756C317.682 116.778 316.472 119.877 315.316 123.054C314.103 123.441 312.973 123.712 311.928 123.867C310.882 124.022 309.699 124.1 308.38 124.1C310.217 118.599 310.889 114.376 310.394 111.432C309.899 108.487 308.488 106.473 306.162 105.388C303.836 104.303 300.859 103.761 297.231 103.761C292.036 103.761 287.259 104.652 282.9 106.434C278.541 108.216 274.616 110.618 271.125 113.64C267.745 116.584 264.787 119.954 262.251 123.751C259.797 127.548 257.823 131.499 256.328 135.606C253.818 142.501 252.771 148.777 253.186 154.433C253.711 160.012 255.732 164.428 259.247 167.683C262.763 170.937 267.818 172.564 274.415 172.564C278.372 172.564 282.638 171.944 287.212 170.704C291.786 169.465 296.185 167.799 300.41 165.707C300.763 166.094 301.005 166.675 301.136 167.45C301.377 168.148 301.44 168.767 301.325 169.31C295.163 172.874 289.38 175.508 283.978 177.213C278.685 178.84 272.906 179.653 266.64 179.653ZM337.551 179.305C337.318 171.789 337.002 164.39 336.602 157.106C336.313 149.746 335.979 142.734 335.601 136.07C335.223 129.407 334.77 123.402 334.242 118.056C333.892 114.26 333.561 111.432 333.249 109.572C332.936 107.712 332.439 106.473 331.758 105.853C331.076 105.233 330.022 104.846 328.594 104.691C328.685 103.761 328.844 102.87 329.072 102.018C329.328 101.088 329.569 100.313 329.794 99.6932C330.591 99.7707 331.552 99.8482 332.678 99.9257C333.833 99.9257 335.055 99.9644 336.346 100.042C337.748 100.042 339.15 100.042 340.551 100.042C341.953 100.042 343.314 100.042 344.633 100.042C347.271 100.042 349.842 100.003 352.343 99.9257C354.928 99.8482 357.388 99.7707 359.725 99.6932C359.471 100.391 359.093 101.204 358.589 102.134C358.197 102.986 357.763 103.838 357.288 104.691C354.51 104.846 352.335 105.272 350.762 105.969C349.217 106.589 348.203 107.79 347.719 109.572C347.346 111.277 347.336 113.911 347.687 117.475C348.109 122.434 348.461 127.47 348.743 132.584C349.026 137.698 349.239 142.889 349.383 148.157C349.637 153.349 349.821 158.734 349.934 164.312H348.079C352.303 159.276 356.39 154.278 360.338 149.32C364.369 144.361 368.332 139.363 372.226 134.327C376.231 129.213 380.168 124.061 384.036 118.87C387.182 114.531 388.848 111.199 389.035 108.875C389.332 106.473 387.696 105.078 384.126 104.691C384.189 103.838 384.349 102.947 384.604 102.018C384.86 101.088 385.101 100.313 385.327 99.6932C386.535 99.7707 387.662 99.8482 388.705 99.9257C389.86 99.9257 391 99.9644 392.126 100.042C393.28 100.042 394.476 100.042 395.713 100.042C397.609 100.042 399.726 100.003 402.063 99.9257C404.482 99.8482 406.613 99.7707 408.455 99.6932C408.145 100.546 407.793 101.398 407.401 102.25C407.036 103.025 406.575 103.838 406.018 104.691C403.264 105.233 400.708 106.705 398.35 109.107C396.02 111.432 393.366 114.531 390.39 118.405C382.629 128.4 374.731 138.434 366.695 148.506C358.741 158.579 350.691 168.69 342.544 178.84C341.663 178.995 340.837 179.111 340.067 179.189C339.379 179.266 338.541 179.305 337.551 179.305ZM437.181 179.305C436.515 177.058 435.497 174.191 434.128 170.704C432.786 167.14 431.144 163.382 429.202 159.431C427.342 155.479 425.329 151.722 423.164 148.157C420.998 144.593 418.868 141.61 416.774 139.208L451.057 114.337C455.179 111.393 457.537 109.107 458.129 107.48C458.832 105.775 457.81 104.846 455.063 104.691C455.097 103.916 455.228 103.102 455.456 102.25C455.684 101.398 455.953 100.546 456.263 99.6932C457.637 99.7707 459.464 99.8482 461.744 99.9257C464.025 100.003 466.402 100.042 468.875 100.042C470.524 100.042 472.091 100.042 473.575 100.042C475.17 99.9644 476.627 99.9257 477.946 99.9257C479.376 99.8482 480.641 99.7707 481.741 99.6932C481.459 100.468 481.108 101.32 480.687 102.25C480.266 103.18 479.764 103.993 479.18 104.691C477.338 104.768 475.438 105.117 473.481 105.737C471.635 106.279 469.468 107.248 466.982 108.642C464.578 110.037 461.563 112.09 457.937 114.802L428.425 136.419L429.441 133.63C431.86 136.497 434.339 140.448 436.876 145.484C439.523 150.443 442.248 155.983 445.05 162.104C446.209 164.583 447.275 166.637 448.25 168.264C449.224 169.891 450.546 171.131 452.214 171.983C453.965 172.835 456.406 173.377 459.538 173.61C459.312 174.23 458.989 175.005 458.568 175.934C458.147 176.864 457.658 177.755 457.1 178.607C455.534 178.607 453.926 178.607 452.277 178.607C450.628 178.607 448.923 178.646 447.164 178.724C445.404 178.801 443.685 178.879 442.008 178.956C440.331 179.034 438.722 179.15 437.181 179.305ZM383.384 178.956C383.779 177.871 384.158 176.942 384.523 176.167C384.915 175.314 385.348 174.578 385.821 173.959C388.104 173.804 389.962 173.455 391.396 172.913C392.859 172.293 394.091 171.285 395.093 169.891C396.124 168.419 397.105 166.404 398.035 163.847L415.886 114.802C416.845 112.168 417.331 110.153 417.344 108.758C417.357 107.364 416.858 106.357 415.846 105.737C414.835 105.117 413.231 104.768 411.032 104.691C411.011 104.071 411.114 103.335 411.341 102.483C411.569 101.63 411.866 100.7 412.233 99.6932C413.771 99.7707 415.31 99.8482 416.848 99.9257C418.497 99.9257 420.174 99.9644 421.877 100.042C423.608 100.042 425.34 100.042 427.071 100.042C428.885 100.042 430.617 100.042 432.266 100.042C433.943 99.9644 435.565 99.9257 437.132 99.9257C438.809 99.8482 440.486 99.7707 442.164 99.6932C441.797 100.7 441.417 101.63 441.025 102.483C440.632 103.335 440.199 104.071 439.726 104.691C437.554 104.768 435.696 105.117 434.151 105.737C432.689 106.357 431.456 107.364 430.454 108.758C429.452 110.153 428.471 112.168 427.512 114.802L409.661 163.847C408.73 166.404 408.245 168.419 408.203 169.891C408.191 171.285 408.69 172.293 409.701 172.913C410.823 173.455 412.427 173.804 414.515 173.959C414.537 174.578 414.434 175.314 414.206 176.167C414.006 176.942 413.709 177.871 413.314 178.956C410.897 178.801 408.425 178.685 405.897 178.607C403.341 178.607 400.867 178.607 398.476 178.607C396.085 178.607 393.529 178.607 390.808 178.607C388.059 178.685 385.584 178.801 383.384 178.956ZM532.355 147.344C529.93 154.007 527.559 159.276 525.242 163.15C522.925 167.024 519.83 170.317 515.957 173.029C512.858 175.198 509.366 176.864 505.48 178.026C501.705 179.111 497.715 179.653 493.509 179.653C485.841 179.653 480.162 178.607 476.471 176.515C472.89 174.346 470.913 171.169 470.54 166.985C470.248 162.801 471.189 157.726 473.36 151.76L486.812 114.802C487.827 112.013 488.368 109.959 488.435 108.642C488.613 107.248 488.251 106.318 487.348 105.853C486.556 105.311 485.172 104.923 483.195 104.691C483.258 103.838 483.403 102.986 483.631 102.134C483.859 101.282 484.113 100.468 484.395 99.6932C486.016 99.7707 488.132 99.8482 490.742 99.9257C493.435 100.003 496.059 100.042 498.615 100.042C499.852 100.042 501.13 100.042 502.45 100.042C503.769 100.042 505.047 100.042 506.284 100.042C507.549 99.9644 508.758 99.9257 509.913 99.9257C511.095 99.8482 512.154 99.7707 513.089 99.6932C512.807 100.468 512.47 101.282 512.077 102.134C511.685 102.986 511.209 103.838 510.652 104.691C508.204 104.846 506.263 105.194 504.829 105.737C503.423 106.202 502.26 107.131 501.34 108.526C500.449 109.843 499.481 111.935 498.438 114.802L485.578 150.133C483.999 154.472 483.179 158.424 483.119 161.988C483.058 165.552 484.173 168.38 486.462 170.472C488.78 172.486 492.659 173.494 498.101 173.494C500.163 173.494 502.543 173.184 505.242 172.564C507.97 171.867 510.495 170.704 512.819 169.077C514.589 167.838 516.142 166.404 517.476 164.777C518.81 163.15 520.122 161.019 521.41 158.385C522.781 155.751 524.214 152.38 525.709 148.274L536.2 119.451C537.553 115.732 538.391 112.865 538.712 110.85C539.061 108.758 538.786 107.248 537.888 106.318C537.072 105.388 535.455 104.846 533.038 104.691C533.214 103.529 533.387 102.599 533.558 101.901C533.73 101.204 533.956 100.468 534.239 99.6932C535.2 99.7707 536.326 99.8482 537.617 99.9257C538.936 99.9257 540.283 99.9644 541.656 100.042C543.14 100.042 544.501 100.042 545.738 100.042C547.634 100.042 549.668 100.003 551.84 99.9257C554.095 99.8482 556.019 99.7707 557.614 99.6932C557.417 100.236 557.136 100.894 556.771 101.669C556.435 102.366 555.903 103.374 555.177 104.691C553.224 104.846 551.542 105.388 550.132 106.318C548.75 107.17 547.472 108.642 546.298 110.734C545.153 112.749 543.889 115.654 542.507 119.451L532.355 147.344Z" fill="black"/>
</svg>
