<svg width="335" height="342" viewBox="0 0 335 342" fill="none" xmlns="http://www.w3.org/2000/svg">
<g clip-path="url(#clip0_11_40)">
<path d="M126 12H241L229.029 44.8892H264.029L207.596 199.939H57.596L126 12Z" fill="black"/>
<path d="M246 12L265.739 40.1908H235.739L246 12Z" fill="black"/>
<rect width="37.5" height="37.5" transform="matrix(1 0 -0.34202 0.939693 135.125 88.5849)" fill="white"/>
<rect width="37.5" height="37.5" transform="matrix(1 0 -0.34202 0.939693 147.951 53.3465)" fill="white"/>
<path d="M185.451 53.3465C206.162 53.3465 217.209 69.1233 210.125 88.5849H172.625L185.451 53.3465Z" fill="white"/>
<path d="M122.3 123.823H159.8L146.974 159.062C126.263 159.062 115.216 143.285 122.3 123.823Z" fill="white"/>
<rect width="37.5" height="37.5" transform="matrix(1 0 -0.34202 0.939693 159.8 123.823)" fill="white"/>
<path d="M45.2357 324.653C37.5676 324.653 31.3856 322.949 26.6898 319.54C22.1046 316.053 19.2357 311.249 18.083 305.128C16.9584 298.93 17.8626 291.802 20.7955 283.744C23.2207 277.08 26.4901 271.269 30.6037 266.31C34.7172 261.352 39.3179 257.206 44.4059 253.875C49.5763 250.543 54.89 248.064 60.3469 246.437C65.8863 244.809 71.2945 243.996 76.5716 243.996C81.7661 243.996 86.3239 244.5 90.2448 245.507C94.1658 246.514 98.0271 248.025 101.829 250.039C100.265 252.751 98.8361 255.657 97.5432 258.756C96.2784 261.778 95.068 264.877 93.9117 268.054C92.6988 268.441 91.5695 268.712 90.5236 268.867C89.4778 269.022 88.2952 269.1 86.976 269.1C88.8133 263.599 89.4845 259.376 88.9895 256.432C88.4945 253.487 87.084 251.473 84.7578 250.388C82.4317 249.303 79.4546 248.761 75.8267 248.761C70.6321 248.761 65.8553 249.652 61.4963 251.434C57.1373 253.216 53.2123 255.618 49.7213 258.64C46.341 261.584 43.3827 264.954 40.8466 268.751C38.3928 272.548 36.4186 276.499 34.924 280.606C32.4141 287.501 31.3667 293.777 31.7816 299.433C32.3072 305.012 34.3277 309.428 37.8432 312.683C41.3586 315.937 46.4144 317.564 53.0107 317.564C56.9684 317.564 61.2343 316.944 65.8081 315.704C70.382 314.465 74.7812 312.799 79.0056 310.707C79.3594 311.094 79.6013 311.675 79.7316 312.45C79.9725 313.148 80.0355 313.767 79.9205 314.31C73.7586 317.874 67.9762 320.508 62.5735 322.213C57.2815 323.84 51.5022 324.653 45.2357 324.653ZM116.147 324.305C115.914 316.789 115.598 309.39 115.198 302.106C114.909 294.746 114.575 287.734 114.197 281.07C113.819 274.407 113.366 268.402 112.838 263.056C112.488 259.26 112.157 256.432 111.845 254.572C111.532 252.712 111.035 251.473 110.354 250.853C109.672 250.233 108.618 249.846 107.19 249.691C107.281 248.761 107.44 247.87 107.668 247.018C107.924 246.088 108.165 245.313 108.39 244.693C109.187 244.771 110.148 244.848 111.274 244.926C112.429 244.926 113.651 244.964 114.942 245.042C116.344 245.042 117.746 245.042 119.147 245.042C120.549 245.042 121.91 245.042 123.229 245.042C125.867 245.042 128.438 245.003 130.939 244.926C133.524 244.848 135.984 244.771 138.321 244.693C138.067 245.391 137.689 246.204 137.185 247.134C136.793 247.986 136.359 248.838 135.884 249.691C133.106 249.846 130.931 250.272 129.358 250.969C127.813 251.589 126.799 252.79 126.315 254.572C125.942 256.277 125.932 258.911 126.283 262.475C126.705 267.434 127.057 272.47 127.339 277.584C127.622 282.698 127.835 287.889 127.979 293.157C128.233 298.349 128.417 303.734 128.53 309.312H126.675C130.899 304.276 134.986 299.278 138.934 294.32C142.965 289.361 146.928 284.363 150.822 279.327C154.827 274.213 158.764 269.061 162.632 263.87C165.778 259.531 167.444 256.199 167.631 253.875C167.928 251.473 166.292 250.078 162.722 249.691C162.785 248.838 162.945 247.947 163.2 247.018C163.456 246.088 163.697 245.313 163.923 244.693C165.131 244.771 166.258 244.848 167.301 244.926C168.456 244.926 169.596 244.964 170.722 245.042C171.876 245.042 173.072 245.042 174.309 245.042C176.205 245.042 178.322 245.003 180.659 244.926C183.078 244.848 185.209 244.771 187.051 244.693C186.741 245.546 186.389 246.398 185.997 247.25C185.632 248.025 185.171 248.838 184.614 249.691C181.86 250.233 179.304 251.705 176.946 254.107C174.616 256.432 171.962 259.531 168.986 263.405C161.225 273.4 153.327 283.434 145.291 293.506C137.337 303.579 129.287 313.69 121.14 323.84C120.259 323.995 119.433 324.111 118.663 324.189C117.975 324.266 117.137 324.305 116.147 324.305ZM215.777 324.305C215.111 322.058 214.093 319.191 212.724 315.704C211.382 312.14 209.74 308.382 207.798 304.431C205.938 300.479 203.925 296.722 201.76 293.157C199.594 289.593 197.464 286.61 195.37 284.208L229.653 259.337C233.775 256.393 236.133 254.107 236.725 252.48C237.428 250.775 236.406 249.846 233.659 249.691C233.693 248.916 233.824 248.102 234.052 247.25C234.28 246.398 234.549 245.546 234.859 244.693C236.233 244.771 238.06 244.848 240.34 244.926C242.621 245.003 244.998 245.042 247.471 245.042C249.12 245.042 250.687 245.042 252.171 245.042C253.766 244.964 255.223 244.926 256.542 244.926C257.972 244.848 259.237 244.771 260.337 244.693C260.055 245.468 259.704 246.32 259.283 247.25C258.862 248.18 258.36 248.993 257.776 249.691C255.934 249.768 254.034 250.117 252.077 250.737C250.231 251.279 248.064 252.248 245.578 253.642C243.174 255.037 240.159 257.09 236.533 259.802L207.021 281.419L208.037 278.63C210.456 281.497 212.935 285.448 215.472 290.484C218.119 295.443 220.844 300.983 223.646 307.104C224.805 309.583 225.871 311.637 226.846 313.264C227.82 314.891 229.142 316.131 230.81 316.983C232.561 317.835 235.002 318.377 238.134 318.61C237.908 319.23 237.585 320.005 237.164 320.934C236.743 321.864 236.254 322.755 235.696 323.607C234.13 323.607 232.522 323.607 230.873 323.607C229.224 323.607 227.519 323.646 225.759 323.724C224 323.801 222.281 323.879 220.604 323.956C218.927 324.034 217.318 324.15 215.777 324.305ZM161.98 323.956C162.375 322.871 162.754 321.942 163.119 321.167C163.511 320.314 163.944 319.578 164.417 318.959C166.7 318.804 168.558 318.455 169.992 317.913C171.455 317.293 172.687 316.285 173.689 314.891C174.72 313.419 175.701 311.404 176.631 308.847L194.482 259.802C195.441 257.168 195.927 255.153 195.94 253.758C195.953 252.364 195.454 251.357 194.442 250.737C193.431 250.117 191.827 249.768 189.628 249.691C189.607 249.071 189.71 248.335 189.937 247.483C190.165 246.63 190.462 245.7 190.829 244.693C192.367 244.771 193.906 244.848 195.444 244.926C197.093 244.926 198.77 244.964 200.473 245.042C202.204 245.042 203.936 245.042 205.667 245.042C207.481 245.042 209.213 245.042 210.862 245.042C212.539 244.964 214.161 244.926 215.728 244.926C217.405 244.848 219.082 244.771 220.76 244.693C220.393 245.7 220.013 246.63 219.621 247.483C219.228 248.335 218.795 249.071 218.322 249.691C216.15 249.768 214.292 250.117 212.747 250.737C211.285 251.357 210.052 252.364 209.05 253.758C208.048 255.153 207.067 257.168 206.108 259.802L188.257 308.847C187.326 311.404 186.841 313.419 186.799 314.891C186.787 316.285 187.286 317.293 188.297 317.913C189.419 318.455 191.023 318.804 193.111 318.959C193.133 319.578 193.03 320.314 192.802 321.167C192.602 321.942 192.305 322.871 191.91 323.956C189.493 323.801 187.021 323.685 184.493 323.607C181.937 323.607 179.463 323.607 177.072 323.607C174.681 323.607 172.125 323.607 169.404 323.607C166.655 323.685 164.18 323.801 161.98 323.956ZM310.951 292.344C308.526 299.007 306.155 304.276 303.838 308.15C301.521 312.024 298.426 315.317 294.553 318.029C291.454 320.198 287.962 321.864 284.076 323.026C280.301 324.111 276.311 324.653 272.105 324.653C264.437 324.653 258.758 323.607 255.067 321.515C251.486 319.346 249.509 316.169 249.136 311.985C248.844 307.801 249.785 302.726 251.956 296.76L265.408 259.802C266.423 257.013 266.964 254.959 267.031 253.642C267.209 252.248 266.847 251.318 265.944 250.853C265.152 250.311 263.768 249.923 261.791 249.691C261.854 248.838 261.999 247.986 262.227 247.134C262.455 246.282 262.709 245.468 262.991 244.693C264.612 244.771 266.728 244.848 269.338 244.926C272.031 245.003 274.655 245.042 277.211 245.042C278.448 245.042 279.726 245.042 281.046 245.042C282.365 245.042 283.643 245.042 284.88 245.042C286.145 244.964 287.354 244.926 288.509 244.926C289.691 244.848 290.75 244.771 291.685 244.693C291.403 245.468 291.066 246.282 290.673 247.134C290.281 247.986 289.805 248.838 289.248 249.691C286.8 249.846 284.859 250.194 283.425 250.737C282.019 251.202 280.856 252.131 279.936 253.526C279.045 254.843 278.077 256.935 277.034 259.802L264.174 295.133C262.595 299.472 261.775 303.424 261.715 306.988C261.654 310.552 262.769 313.38 265.058 315.472C267.376 317.486 271.255 318.494 276.697 318.494C278.759 318.494 281.139 318.184 283.838 317.564C286.566 316.867 289.091 315.704 291.415 314.077C293.185 312.838 294.738 311.404 296.072 309.777C297.406 308.15 298.718 306.019 300.006 303.385C301.377 300.751 302.81 297.38 304.305 293.274L314.796 264.451C316.149 260.732 316.987 257.865 317.308 255.85C317.657 253.758 317.382 252.248 316.484 251.318C315.668 250.388 314.051 249.846 311.634 249.691C311.81 248.529 311.983 247.599 312.154 246.901C312.326 246.204 312.552 245.468 312.834 244.693C313.796 244.771 314.922 244.848 316.213 244.926C317.532 244.926 318.879 244.964 320.252 245.042C321.736 245.042 323.097 245.042 324.334 245.042C326.23 245.042 328.264 245.003 330.436 244.926C332.691 244.848 334.615 244.771 336.21 244.693C336.013 245.236 335.732 245.894 335.367 246.669C335.031 247.366 334.499 248.374 333.773 249.691C331.82 249.846 330.138 250.388 328.728 251.318C327.346 252.17 326.068 253.642 324.894 255.734C323.749 257.749 322.485 260.654 321.103 264.451L310.951 292.344Z" fill="black"/>
</g>
<defs>
<clipPath id="clip0_11_40">
<rect width="335" height="342" fill="white"/>
</clipPath>
</defs>
</svg>
